<svg xmlns="http://www.w3.org/2000/svg" width="500" height="500" viewBox="0 0 500 500" version="1.1"><path d="M 244.090 255.141 C 238.364 255.607, 233.480 256.187, 233.236 256.431 C 230.662 259.005, 229.453 338.292, 231.778 352 C 238.051 388.975, 239.006 390, 267.181 390 C 279.549 390, 282.161 389.744, 282.644 388.486 C 282.963 387.653, 281.652 383.265, 279.729 378.736 C 272.805 362.423, 268.808 347.112, 266.092 326.500 C 263.661 308.053, 263.001 299.316, 262.379 277.409 L 261.723 254.317 258.112 254.306 C 256.125 254.300, 249.815 254.676, 244.090 255.141" stroke="none" fill="#eab853" fill-rule="evenodd"/><path d="M 307.152 112.010 C 296.771 114.773, 282.859 121.670, 273.500 128.693 C 264.753 135.257, 262.077 137.995, 254.137 148.500 C 251.228 152.350, 248.686 155.500, 248.489 155.500 C 248.292 155.500, 245.868 152.278, 243.102 148.340 C 234.276 135.771, 223.611 126.379, 210.829 119.917 C 194.577 111.702, 165.871 108.823, 150.572 113.873 C 144.956 115.727, 144.036 117.032, 147.259 118.571 C 150.429 120.085, 167.103 128.893, 169.491 130.315 C 184.606 139.314, 195.847 148.091, 211.204 162.886 C 218.276 169.698, 223.894 175.440, 223.688 175.645 C 223.483 175.850, 220.335 174.666, 216.692 173.015 C 204.200 167.350, 192.091 164.810, 177 164.687 C 165.752 164.595, 162.171 164.955, 155.535 166.844 C 140.042 171.255, 128.433 179.662, 122.178 191 C 119.584 195.701, 117.006 204, 118.139 204 C 118.338 204, 121.651 203.308, 125.500 202.461 C 133.407 200.723, 140.823 199.504, 152.560 198.014 C 163.744 196.594, 194.271 196.482, 196.629 197.852 C 198.064 198.686, 198.144 198.946, 196.972 198.970 C 194.491 199.019, 181.765 205.454, 173.896 210.638 C 158.762 220.608, 147.311 234.100, 143.105 246.915 C 139.816 256.937, 140.469 281.417, 144.133 285.447 C 144.651 286.016, 146.073 285.021, 147.706 282.947 C 150.737 279.094, 170.994 258.728, 175.226 255.277 C 189.109 243.959, 193.649 240.529, 201.148 235.695 C 210.790 229.479, 223.457 222.809, 230.005 220.498 L 234.315 218.978 233.696 237.571 L 233.078 256.163 240.289 255.550 C 244.255 255.213, 250.425 254.763, 254 254.550 L 260.500 254.163 261.115 238.332 C 261.453 229.624, 261.790 221.938, 261.865 221.250 C 262.098 219.097, 265.215 219.878, 274 224.292 C 297.882 236.291, 315.985 249.695, 336.782 270.777 C 345.187 279.298, 352.177 286.096, 352.316 285.885 C 355.777 280.597, 356.557 256.095, 353.546 247.230 C 349.690 235.874, 340.218 223.795, 327.985 214.631 C 321.392 209.693, 320.107 208.915, 308.513 202.855 C 298.322 197.527, 298.419 197.376, 312.500 196.598 C 327.750 195.755, 349.714 197.883, 369.326 202.101 C 374.180 203.146, 378.342 204, 378.576 204 C 379.596 204, 378.742 198.139, 377.150 194.219 C 374.477 187.637, 368.168 180.379, 361 175.643 C 348.025 167.069, 338.473 164.606, 318.500 164.685 C 303.863 164.743, 292.092 167.218, 279.678 172.847 L 272.878 175.930 281.504 166.767 C 293.729 153.780, 304.978 143.553, 316.211 135.211 C 321.553 131.245, 326.173 128, 326.479 128 C 326.786 128, 329.928 126.243, 333.462 124.096 C 336.997 121.949, 341.482 119.666, 343.430 119.023 C 350.440 116.710, 348.773 115.061, 336.980 112.642 C 324.084 109.997, 315.406 109.813, 307.152 112.010" stroke="none" fill="#056b85" fill-rule="evenodd"/></svg>